<svg xmlns="http://www.w3.org/2000/svg">

  <symbol viewBox="0 0 48 48" id="icon-search" fill="currentColor">
    <path d="M39.8 41.95 26.65 28.8q-1.5 1.3-3.5 2.025-2 .725-4.25.725-5.4 0-9.15-3.75T6 18.75q0-5.3 3.75-9.05 3.75-3.75 9.1-3.75 5.3 0 9.025 3.75 3.725 3.75 3.725 9.05 0 2.15-.7 4.15-.7 2-2.1 3.75L42 39.75Zm-20.95-13.4q4.05 0 6.9-2.875Q28.6 22.8 28.6 18.75t-2.85-6.925Q22.9 8.95 18.85 8.95q-4.1 0-6.975 2.875T9 18.75q0 4.05 2.875 6.925t6.975 2.875Z" />
  </symbol>

  <symbol viewBox="0 0 48 48" id="icon-touch" fill="currentColor">
    <path d="M23.25 2q4.55 0 7.775 3.175Q34.25 8.35 34.25 12.9q0 2.6-1.125 4.9Q32 20.1 29.95 21.7h-1.7v-2.5q1.45-1.15 2.225-2.8.775-1.65.775-3.5 0-3.3-2.35-5.6T23.25 5q-3.3 0-5.65 2.3-2.35 2.3-2.35 5.6 0 1.85.775 3.5t2.225 2.8v3.6q-2.8-1.45-4.4-4.1-1.6-2.65-1.6-5.8 0-4.55 3.225-7.725T23.25 2Zm-1.9 42q-.85 0-1.6-.325-.75-.325-1.3-.875L8.15 32.5l2.8-2.9q.7-.7 1.575-1.075t1.825-.125l3.9.9V13q0-2.1 1.45-3.55Q21.15 8 23.25 8q2.1 0 3.55 1.45 1.45 1.45 1.45 3.55v8.6h1.3q.25 0 .45.1t.45.2l7.4 3.6q1.2.55 1.775 1.775.575 1.225.325 2.525l-1.8 10.9q-.25 1.45-1.4 2.375t-2.6.925Zm-.4-3H35l2.15-12.45L28 24h-2.75V13q0-.9-.55-1.45-.55-.55-1.45-.55-.9 0-1.45.55-.55.55-.55 1.45v19.95l-7.7-1.65-1.15 1.15ZM35 41H20.95 35Z" />
  </symbol>

  <symbol viewBox="0 0 48 48" id="icon-more" fill="currentColor">
    <path d="M10.4 26.4q-1 0-1.7-.7T8 24q0-1 .7-1.7t1.7-.7q1 0 1.7.7t.7 1.7q0 1-.7 1.7t-1.7.7Zm13.6 0q-1 0-1.7-.7t-.7-1.7q0-1 .7-1.7t1.7-.7q1 0 1.7.7t.7 1.7q0 1-.7 1.7t-1.7.7Zm13.6 0q-1 0-1.7-.7t-.7-1.7q0-1 .7-1.7t1.7-.7q1 0 1.7.7T40 24q0 1-.7 1.7t-1.7.7Z" />
  </symbol>

  <symbol viewBox="0 0 48 48" id="icon-delete" fill="currentColor">
    <path d="M18.05 33.05 24 27l6 6.05 2.35-2.4-5.95-6.05 5.95-6.05-2.35-2.4-6 6.05-5.95-6.05-2.4 2.4 6 6.05-6 6.05Zm-5 8.95q-1.2 0-2.1-.9-.9-.9-.9-2.1V10.5H8v-3h9.4V6h13.2v1.5H40v3h-2.05V39q0 1.2-.9 2.1-.9.9-2.1.9Zm21.9-31.5h-21.9V39h21.9Zm-21.9 0V39Z" />
  </symbol>

  <symbol viewBox="0 0 48 48" id="icon-done" fill="currentColor">
    <path d="M18.9 35.7 7.7 24.5l2.15-2.15 9.05 9.05 19.2-19.2 2.15 2.15Z" />
  </symbol>

  <symbol viewBox="0 0 48 48" id="icon-expand" fill="currentColor">
    <path d="m24 30.75-12-12 2.15-2.15L24 26.5l9.85-9.85L36 18.8Z" />
  </symbol>

  <symbol viewBox="0 0 48 48" id="icon-close" fill="currentColor">
    <path d="m12.45 37.65-2.1-2.1L21.9 24 10.35 12.45l2.1-2.1L24 21.9l11.55-11.55 2.1 2.1L26.1 24l11.55 11.55-2.1 2.1L24 26.1Z" />
  </symbol>

  <symbol viewBox="0 0 48 48" id="icon-settings" fill="currentColor">
    <path d="m19.4 44-1-6.3q-.95-.35-2-.95t-1.85-1.25l-5.9 2.7L4 30l5.4-3.95q-.1-.45-.125-1.025Q9.25 24.45 9.25 24q0-.45.025-1.025T9.4 21.95L4 18l4.65-8.2 5.9 2.7q.8-.65 1.85-1.25t2-.9l1-6.35h9.2l1 6.3q.95.35 2.025.925Q32.7 11.8 33.45 12.5l5.9-2.7L44 18l-5.4 3.85q.1.5.125 1.075.025.575.025 1.075t-.025 1.05q-.025.55-.125 1.05L44 30l-4.65 8.2-5.9-2.7q-.8.65-1.825 1.275-1.025.625-2.025.925l-1 6.3ZM24 30.5q2.7 0 4.6-1.9 1.9-1.9 1.9-4.6 0-2.7-1.9-4.6-1.9-1.9-4.6-1.9-2.7 0-4.6 1.9-1.9 1.9-1.9 4.6 0 2.7 1.9 4.6 1.9 1.9 4.6 1.9Zm0-3q-1.45 0-2.475-1.025Q20.5 25.45 20.5 24q0-1.45 1.025-2.475Q22.55 20.5 24 20.5q1.45 0 2.475 1.025Q27.5 22.55 27.5 24q0 1.45-1.025 2.475Q25.45 27.5 24 27.5Zm0-3.5Zm-2.2 17h4.4l.7-5.6q1.65-.4 3.125-1.25T32.7 32.1l5.3 2.3 2-3.6-4.7-3.45q.2-.85.325-1.675.125-.825.125-1.675 0-.85-.1-1.675-.1-.825-.35-1.675L40 17.2l-2-3.6-5.3 2.3q-1.15-1.3-2.6-2.175-1.45-.875-3.2-1.125L26.2 7h-4.4l-.7 5.6q-1.7.35-3.175 1.2-1.475.85-2.625 2.1L10 13.6l-2 3.6 4.7 3.45q-.2.85-.325 1.675-.125.825-.125 1.675 0 .85.125 1.675.125.825.325 1.675L8 30.8l2 3.6 5.3-2.3q1.2 1.2 2.675 2.05Q19.45 35 21.1 35.4Z" />
  </symbol>
</svg>
